<svg xmlns="http://www.w3.org/2000/svg" width="512" height="512" viewBox="0 0 512 512" fill="none" role="img" aria-label="Humanize UI app icon">
  <rect width="512" height="512" rx="115" fill="#FAF7F3"/>
  <rect x="0.5" y="0.5" width="511" height="511" rx="114.5" stroke="#E9E2D8"/>
  <g transform="translate(97 97) scale(6.625)">
    <path d="M6 16V12C6 8.7 8.7 6 12 6H16" stroke="#111111" stroke-width="3.5" stroke-linecap="round"/>
    <path d="M32 6H36C39.3 6 42 8.7 42 12V16" stroke="#111111" stroke-width="3.5" stroke-linecap="round"/>
    <path d="M42 32V36C42 39.3 39.3 42 36 42H32" stroke="#111111" stroke-width="3.5" stroke-linecap="round"/>
    <path d="M16 42H12C8.7 42 6 39.3 6 36V32" stroke="#111111" stroke-width="3.5" stroke-linecap="round"/>
    <rect x="15" y="15" width="18" height="18" rx="4.5" fill="#111111"/>
    <rect x="19.5" y="21" width="9" height="2.8" rx="1.4" fill="#FAF7F3"/>
    <rect x="19.5" y="26" width="5.5" height="2.8" rx="1.4" fill="#FAF7F3"/>
  </g>
</svg>
